<mxfile host="app.diagrams.net" agent="Mozilla/5.0 (Windows NT 10.0; Win64; x64) AppleWebKit/537.36 (KHTML, like Gecko) Chrome/133.0.0.0 Safari/537.36 Edg/133.0.0.0" version="26.0.16">
  <diagram name="Page-1" id="_ARbiSKkRxEPHukRn9UV">
    <mxGraphModel dx="1117" dy="816" grid="1" gridSize="10" guides="1" tooltips="1" connect="1" arrows="1" fold="1" page="1" pageScale="1" pageWidth="850" pageHeight="1100" math="0" shadow="0">
      <root>
        <mxCell id="0" />
        <mxCell id="1" parent="0" />
        <mxCell id="vgcWM7ggvIrGD1T_gDjP-1" value="&lt;font style=&quot;font-size: 16px;&quot;&gt;Kubernetes&lt;/font&gt;&lt;div&gt;&lt;br&gt;&lt;/div&gt;&lt;div&gt;&lt;br&gt;&lt;/div&gt;&lt;div&gt;&lt;font style=&quot;font-size: 16px;&quot;&gt;&lt;br&gt;&lt;/font&gt;&lt;/div&gt;&lt;div&gt;&lt;br&gt;&lt;/div&gt;" style="rounded=0;whiteSpace=wrap;html=1;" parent="1" vertex="1">
          <mxGeometry x="185" y="430" width="581" height="110" as="geometry" />
        </mxCell>
        <mxCell id="vgcWM7ggvIrGD1T_gDjP-2" value="DPF Operator" style="rounded=1;whiteSpace=wrap;html=1;fillColor=#dae8fc;strokeColor=#6c8ebf;" parent="1" vertex="1">
          <mxGeometry x="205" y="480" width="120" height="40" as="geometry" />
        </mxCell>
        <mxCell id="vgcWM7ggvIrGD1T_gDjP-4" value="DPF Provisioning Controller" style="rounded=1;whiteSpace=wrap;html=1;fillColor=#dae8fc;strokeColor=#6c8ebf;" parent="1" vertex="1">
          <mxGeometry x="345" y="480" width="120" height="40" as="geometry" />
        </mxCell>
        <mxCell id="vgcWM7ggvIrGD1T_gDjP-5" value="DPF Service Controller" style="rounded=1;whiteSpace=wrap;html=1;fillColor=#dae8fc;strokeColor=#6c8ebf;" parent="1" vertex="1">
          <mxGeometry x="485" y="480" width="120" height="40" as="geometry" />
        </mxCell>
        <mxCell id="vgcWM7ggvIrGD1T_gDjP-6" value="DPF CSI Controller" style="rounded=1;whiteSpace=wrap;html=1;fillColor=#60a917;strokeColor=#2D7600;fontColor=#ffffff;" parent="1" vertex="1">
          <mxGeometry x="626" y="480" width="120" height="40" as="geometry" />
        </mxCell>
        <mxCell id="vgcWM7ggvIrGD1T_gDjP-7" value="&lt;div&gt;&lt;span style=&quot;font-size: 16px;&quot;&gt;DOCA for Host (DMS)&lt;/span&gt;&lt;/div&gt;" style="rounded=0;whiteSpace=wrap;html=1;fillColor=#6a00ff;fontColor=#ffffff;strokeColor=#3700CC;" parent="1" vertex="1">
          <mxGeometry x="185" y="550" width="581" height="40" as="geometry" />
        </mxCell>
        <mxCell id="1Wx0cIaCQdOZNczxIGOG-1" value="" style="endArrow=none;dashed=1;html=1;rounded=0;dashPattern=12 12;strokeColor=#000000;" edge="1" parent="1">
          <mxGeometry width="50" height="50" relative="1" as="geometry">
            <mxPoint x="185" y="600" as="sourcePoint" />
            <mxPoint x="770" y="600" as="targetPoint" />
          </mxGeometry>
        </mxCell>
        <mxCell id="1Wx0cIaCQdOZNczxIGOG-2" value="&lt;font style=&quot;font-size: 16px;&quot;&gt;NVIDIA DOCA&lt;/font&gt;&lt;div&gt;&lt;span style=&quot;font-size: 16px;&quot;&gt;&lt;br&gt;&lt;/span&gt;&lt;/div&gt;&lt;div&gt;&lt;span style=&quot;font-size: 16px;&quot;&gt;&lt;br&gt;&lt;/span&gt;&lt;/div&gt;&lt;div&gt;&lt;br&gt;&lt;/div&gt;&lt;div&gt;&lt;span style=&quot;font-size: 16px;&quot;&gt;&lt;br&gt;&lt;/span&gt;&lt;div&gt;&lt;font style=&quot;font-size: 16px;&quot;&gt;&lt;br&gt;&lt;/font&gt;&lt;/div&gt;&lt;div&gt;&lt;font style=&quot;font-size: 16px;&quot;&gt;&lt;br&gt;&lt;/font&gt;&lt;/div&gt;&lt;div&gt;&lt;font style=&quot;font-size: 16px;&quot;&gt;&lt;br&gt;&lt;/font&gt;&lt;/div&gt;&lt;div&gt;&lt;br&gt;&lt;/div&gt;&lt;/div&gt;" style="rounded=0;whiteSpace=wrap;html=1;" vertex="1" parent="1">
          <mxGeometry x="185" y="620" width="581" height="210" as="geometry" />
        </mxCell>
        <mxCell id="1Wx0cIaCQdOZNczxIGOG-3" value="Networking Service&lt;div&gt;(e.g. HBN)&lt;/div&gt;" style="rounded=1;whiteSpace=wrap;html=1;fillColor=#dae8fc;strokeColor=#6c8ebf;" vertex="1" parent="1">
          <mxGeometry x="205" y="670" width="165" height="40" as="geometry" />
        </mxCell>
        <mxCell id="1Wx0cIaCQdOZNczxIGOG-5" value="&lt;span style=&quot;font-size: 16px;&quot;&gt;NVIDIA BlueField-3 DPU&lt;/span&gt;" style="rounded=0;whiteSpace=wrap;html=1;fillColor=#bac8d3;strokeColor=#23445d;" vertex="1" parent="1">
          <mxGeometry x="185" y="840" width="581" height="40" as="geometry" />
        </mxCell>
        <mxCell id="1Wx0cIaCQdOZNczxIGOG-8" value="Storage Service&lt;div&gt;(SNAP Service)&lt;/div&gt;" style="rounded=1;whiteSpace=wrap;html=1;fillColor=#60a917;strokeColor=#2D7600;fontColor=#ffffff;" vertex="1" parent="1">
          <mxGeometry x="393" y="670" width="165" height="40" as="geometry" />
        </mxCell>
        <mxCell id="1Wx0cIaCQdOZNczxIGOG-9" value="Cybersecurity Service&lt;div&gt;(e.g. App Shield )&lt;/div&gt;" style="rounded=1;whiteSpace=wrap;html=1;fillColor=#dae8fc;strokeColor=#6c8ebf;" vertex="1" parent="1">
          <mxGeometry x="581" y="670" width="165" height="40" as="geometry" />
        </mxCell>
        <mxCell id="1Wx0cIaCQdOZNczxIGOG-10" value="&lt;span style=&quot;font-size: 16px;&quot;&gt;DOCA Platform Framwork (DPF)&lt;/span&gt;&lt;div&gt;&lt;span style=&quot;font-size: 16px;&quot;&gt;&lt;br&gt;&lt;/span&gt;&lt;/div&gt;&lt;div&gt;&lt;span style=&quot;font-size: 16px;&quot;&gt;&lt;br&gt;&lt;/span&gt;&lt;/div&gt;" style="rounded=0;whiteSpace=wrap;html=1;" vertex="1" parent="1">
          <mxGeometry x="205" y="730" width="545" height="90" as="geometry" />
        </mxCell>
        <mxCell id="1Wx0cIaCQdOZNczxIGOG-11" value="DPU Provisioning" style="rounded=1;whiteSpace=wrap;html=1;fillColor=#dae8fc;strokeColor=#6c8ebf;" vertex="1" parent="1">
          <mxGeometry x="220" y="770" width="112.5" height="40" as="geometry" />
        </mxCell>
        <mxCell id="1Wx0cIaCQdOZNczxIGOG-12" value="DPU Health" style="rounded=1;whiteSpace=wrap;html=1;fillColor=#dae8fc;strokeColor=#6c8ebf;" vertex="1" parent="1">
          <mxGeometry x="352.5" y="770" width="112.5" height="40" as="geometry" />
        </mxCell>
        <mxCell id="1Wx0cIaCQdOZNczxIGOG-13" value="Service Chaning" style="rounded=1;whiteSpace=wrap;html=1;fillColor=#dae8fc;strokeColor=#6c8ebf;" vertex="1" parent="1">
          <mxGeometry x="488.75" y="770" width="112.5" height="40" as="geometry" />
        </mxCell>
        <mxCell id="1Wx0cIaCQdOZNczxIGOG-14" value="SNAP Controller" style="rounded=1;whiteSpace=wrap;html=1;fillColor=#60a917;strokeColor=#2D7600;fontColor=#ffffff;" vertex="1" parent="1">
          <mxGeometry x="620" y="770" width="112.5" height="40" as="geometry" />
        </mxCell>
        <mxCell id="1Wx0cIaCQdOZNczxIGOG-15" value="Host Software" style="text;html=1;align=center;verticalAlign=middle;whiteSpace=wrap;rounded=0;" vertex="1" parent="1">
          <mxGeometry x="90" y="485" width="60" height="30" as="geometry" />
        </mxCell>
        <mxCell id="1Wx0cIaCQdOZNczxIGOG-18" value="BlueField Software" style="text;html=1;align=center;verticalAlign=middle;whiteSpace=wrap;rounded=0;" vertex="1" parent="1">
          <mxGeometry x="90" y="710" width="60" height="30" as="geometry" />
        </mxCell>
        <mxCell id="1Wx0cIaCQdOZNczxIGOG-19" value="Hardware" style="text;html=1;align=center;verticalAlign=middle;whiteSpace=wrap;rounded=0;" vertex="1" parent="1">
          <mxGeometry x="90" y="845" width="60" height="30" as="geometry" />
        </mxCell>
      </root>
    </mxGraphModel>
  </diagram>
</mxfile>
